<svg xmlns="http://www.w3.org/2000/svg" width="1200" height="630" viewBox="0 0 1200 630">
  <defs>
    <linearGradient id="bg" x1="0%" y1="0%" x2="100%" y2="100%">
      <stop offset="0%" style="stop-color:#002145;stop-opacity:1" />
      <stop offset="100%" style="stop-color:#001530;stop-opacity:1" />
    </linearGradient>
  </defs>

  <!-- Background -->
  <rect width="1200" height="630" fill="url(#bg)" />

  <!-- Subtle pattern: vertical stripes -->
  <g opacity="0.03">
    <rect x="100" y="0" width="40" height="630" fill="#ffffff" />
    <rect x="300" y="0" width="40" height="630" fill="#ffffff" />
    <rect x="500" y="0" width="40" height="630" fill="#ffffff" />
    <rect x="700" y="0" width="40" height="630" fill="#ffffff" />
    <rect x="900" y="0" width="40" height="630" fill="#ffffff" />
    <rect x="1100" y="0" width="40" height="630" fill="#ffffff" />
  </g>

  <!-- Football icon -->
  <g transform="translate(600, 200)" opacity="0.15">
    <circle cx="0" cy="0" r="80" fill="none" stroke="#ffffff" stroke-width="6" />
    <polygon points="0,-40 35,-20 35,20 0,40 -35,20 -35,-20" fill="none" stroke="#ffffff" stroke-width="4" />
    <line x1="0" y1="-80" x2="0" y2="-40" stroke="#ffffff" stroke-width="4" />
    <line x1="69" y1="-40" x2="35" y2="-20" stroke="#ffffff" stroke-width="4" />
    <line x1="69" y1="40" x2="35" y2="20" stroke="#ffffff" stroke-width="4" />
    <line x1="0" y1="80" x2="0" y2="40" stroke="#ffffff" stroke-width="4" />
    <line x1="-69" y1="40" x2="-35" y2="20" stroke="#ffffff" stroke-width="4" />
    <line x1="-69" y1="-40" x2="-35" y2="-20" stroke="#ffffff" stroke-width="4" />
  </g>

  <!-- Main title -->
  <text x="600" y="320" text-anchor="middle" font-family="-apple-system, BlinkMacSystemFont, 'Segoe UI', Roboto, 'Helvetica Neue', Arial, sans-serif" font-size="72" font-weight="800" fill="#ffffff" letter-spacing="-1">
    Rykker Godset Opp?
  </text>

  <!-- Subtitle -->
  <text x="600" y="380" text-anchor="middle" font-family="-apple-system, BlinkMacSystemFont, 'Segoe UI', Roboto, 'Helvetica Neue', Arial, sans-serif" font-size="28" font-weight="400" fill="#a0b4cc">
    Live tabell og opprykksstatus for Strømsgodset
  </text>

  <!-- Divider line -->
  <line x1="450" y1="420" x2="750" y2="420" stroke="#ffffff" stroke-width="2" opacity="0.3" />

  <!-- URL -->
  <text x="600" y="470" text-anchor="middle" font-family="-apple-system, BlinkMacSystemFont, 'Segoe UI', Roboto, 'Helvetica Neue', Arial, sans-serif" font-size="22" font-weight="500" fill="#a0b4cc">
    godset.mats.codes
  </text>

  <!-- Bottom accent bar -->
  <rect x="0" y="610" width="1200" height="20" fill="#ffffff" opacity="0.1" />
</svg>
