<svg xmlns="http://www.w3.org/2000/svg" width="1200" height="630" viewBox="0 0 1200 630">
  <defs>
    <linearGradient id="bg" x1="0%" y1="0%" x2="100%" y2="100%">
      <stop offset="0%" style="stop-color:#002145;stop-opacity:1" />
      <stop offset="100%" style="stop-color:#001530;stop-opacity:1" />
    </linearGradient>
  </defs>

  <!-- Background -->
  <rect width="1200" height="630" fill="url(#bg)" />

  <!-- Subtle pattern: vertical stripes -->
  <g opacity="0.03">
    <rect x="100" y="0" width="40" height="630" fill="#ffffff" />
    <rect x="300" y="0" width="40" height="630" fill="#ffffff" />
    <rect x="500" y="0" width="40" height="630" fill="#ffffff" />
    <rect x="700" y="0" width="40" height="630" fill="#ffffff" />
    <rect x="900" y="0" width="40" height="630" fill="#ffffff" />
    <rect x="1100" y="0" width="40" height="630" fill="#ffffff" />
  </g>

  <!-- Football icon -->
  <g transform="translate(600, 190)" opacity="0.12">
    <circle cx="0" cy="0" r="90" fill="none" stroke="#ffffff" stroke-width="7" />
    <polygon points="0,-45 40,-22 40,22 0,45 -40,22 -40,-22" fill="none" stroke="#ffffff" stroke-width="5" />
    <line x1="0" y1="-90" x2="0" y2="-45" stroke="#ffffff" stroke-width="5" />
    <line x1="78" y1="-45" x2="40" y2="-22" stroke="#ffffff" stroke-width="5" />
    <line x1="78" y1="45" x2="40" y2="22" stroke="#ffffff" stroke-width="5" />
    <line x1="0" y1="90" x2="0" y2="45" stroke="#ffffff" stroke-width="5" />
    <line x1="-78" y1="45" x2="-40" y2="22" stroke="#ffffff" stroke-width="5" />
    <line x1="-78" y1="-45" x2="-40" y2="-22" stroke="#ffffff" stroke-width="5" />
  </g>

  <!-- Main title -->
  <text x="600" y="300" text-anchor="middle" font-family="-apple-system, BlinkMacSystemFont, 'Segoe UI', Roboto, 'Helvetica Neue', Arial, sans-serif" font-size="96" font-weight="800" fill="#ffffff" letter-spacing="-2">
    Rykker Godset Opp?
  </text>

  <!-- Subtitle -->
  <text x="600" y="390" text-anchor="middle" font-family="-apple-system, BlinkMacSystemFont, 'Segoe UI', Roboto, 'Helvetica Neue', Arial, sans-serif" font-size="38" font-weight="400" fill="#a0b4cc">
    Følg opprykksstatus for Strømsgodset i OBOS-ligaen 2026
  </text>

  <!-- Bottom accent bar -->
  <rect x="0" y="610" width="1200" height="20" fill="#ffffff" opacity="0.1" />
</svg>
